<svg width="600" height="600" viewbox = "0 0 600 600"  xmlns="http://www.w3.org/2000/svg">
<!--<json>{
  "shapes": [],
  "glyph": "0504,0506,0504,0504,0506,0506,0504,0504,0506,0506,0504,0506,0506,0506,0506,0506,0506,0506,0506,01127,01127,01127,01056,0505,0505,0505,0505,0506,0505,0505,0506,0505,0506,0505,0506,0505,0506,0506,0506,0506,0506,0506,0506,0506,0506,0506,0506,0506,0506,0506,0506,0506,0506,0506,0506,0506,01106,01106,01102,01125,01123,0505,0505,0506,0505,0506,0506,0505,0505,0506,0505,0506,0506,0505,0506,0506,0506,0505,0505,0506,0506,0506,0506,0506,0506,0506,0506,0506,0506,0506,0506,0506,0506,0506,01056,01117,01122,01107,0504,0504,0504,0504,0504,0504,0504,0504,0504,0504,0504,0504,0506,0506,0506,0506,0506,0506,0506,0506,0506,",
  "x0": 300,
  "y0": 300,
  "unit": 72,
  "width": 600,
  "height": 600,
  "style": {
    "color0": "black",
    "fill0": "black",
    "line0": 1,
    "color1": "black",
    "fill1": "black",
    "line1": 5,
    "color2": "red",
    "fill2": "red",
    "line2": 1,
    "color3": "#FF7900",
    "fill3": "#FF7900",
    "line3": 1,
    "color4": "yellow",
    "fill4": "yellow",
    "line4": 1,
    "color5": "green",
    "fill5": "green",
    "line5": 1,
    "color6": "blue",
    "fill6": "blue",
    "line6": 1,
    "color7": "purple",
    "fill7": "purple",
    "line7": 1
  }
}</json>-->	<path d = "M194 239 L194 235 L190 235 L190 239 L194 239 Z" stroke = "#000000" stroke-width = "1" fill = "#000000" />	<path d = "M194 230 L194 226 L190 226 L190 230 L194 230 Z" stroke = "#000000" stroke-width = "1" fill = "#000000" />	<path d = "M194 221 L194 217 L190 217 L190 221 L194 221 Z" stroke = "#000000" stroke-width = "1" fill = "#000000" />	<path d = "M194 212 L194 208 L190 208 L190 212 L194 212 Z" stroke = "#000000" stroke-width = "1" fill = "#000000" />	<path d = "M194 203 L194 199 L190 199 L190 203 L194 203 Z" stroke = "#000000" stroke-width = "1" fill = "#000000" />	<path d = "M194 194 L194 190 L190 190 L190 194 L194 194 Z" stroke = "#000000" stroke-width = "1" fill = "#000000" />	<path d = "M203 248 L203 244 L199 244 L199 248 L203 248 Z" stroke = "#000000" stroke-width = "1" fill = "#000000" />	<path d = "M212 239 L212 235 L208 235 L208 239 L212 239 Z" stroke = "#000000" stroke-width = "1" fill = "#000000" />	<path d = "M212 230 L212 226 L208 226 L208 230 L212 230 Z" stroke = "#000000" stroke-width = "1" fill = "#000000" />	<path d = "M212 221 L212 217 L208 217 L208 221 L212 221 Z" stroke = "#000000" stroke-width = "1" fill = "#000000" />	<path d = "M221 248 L221 244 L217 244 L217 248 L221 248 Z" stroke = "#000000" stroke-width = "1" fill = "#000000" />	<path d = "M230 239 L230 235 L226 235 L226 239 L230 239 Z" stroke = "#000000" stroke-width = "1" fill = "#000000" />	<path d = "M230 230 L230 226 L226 226 L226 230 L230 230 Z" stroke = "#000000" stroke-width = "1" fill = "#000000" />	<path d = "M230 221 L230 217 L226 217 L226 221 L230 221 Z" stroke = "#000000" stroke-width = "1" fill = "#000000" />	<path d = "M230 212 L230 208 L226 208 L226 212 L230 212 Z" stroke = "#000000" stroke-width = "1" fill = "#000000" />	<path d = "M230 203 L230 199 L226 199 L226 203 L230 203 Z" stroke = "#000000" stroke-width = "1" fill = "#000000" />	<path d = "M230 194 L230 190 L226 190 L226 194 L230 194 Z" stroke = "#000000" stroke-width = "1" fill = "#000000" />	<path d = "M248 239 L248 235 L244 235 L244 239 L248 239 Z" stroke = "#000000" stroke-width = "1" fill = "#000000" />	<path d = "M248 230 L248 226 L244 226 L244 230 L248 230 Z" stroke = "#000000" stroke-width = "1" fill = "#000000" />	<path d = "M248 221 L248 217 L244 217 L244 221 L248 221 Z" stroke = "#000000" stroke-width = "1" fill = "#000000" />	<path d = "M248 212 L248 208 L244 208 L244 212 L248 212 Z" stroke = "#000000" stroke-width = "1" fill = "#000000" />	<path d = "M248 203 L248 199 L244 199 L244 203 L248 203 Z" stroke = "#000000" stroke-width = "1" fill = "#000000" />	<path d = "M248 194 L248 190 L244 190 L244 194 L248 194 Z" stroke = "#000000" stroke-width = "1" fill = "#000000" />	<path d = "M257 248 L257 244 L253 244 L253 248 L257 248 Z" stroke = "#000000" stroke-width = "1" fill = "#000000" />	<path d = "M266 239 L266 235 L262 235 L262 239 L266 239 Z" stroke = "#000000" stroke-width = "1" fill = "#000000" />	<path d = "M266 230 L266 226 L262 226 L262 230 L266 230 Z" stroke = "#000000" stroke-width = "1" fill = "#000000" />	<path d = "M266 221 L266 217 L262 217 L262 221 L266 221 Z" stroke = "#000000" stroke-width = "1" fill = "#000000" />	<path d = "M275 248 L275 244 L271 244 L271 248 L275 248 Z" stroke = "#000000" stroke-width = "1" fill = "#000000" />	<path d = "M284 239 L284 235 L280 235 L280 239 L284 239 Z" stroke = "#000000" stroke-width = "1" fill = "#000000" />	<path d = "M284 230 L284 226 L280 226 L280 230 L284 230 Z" stroke = "#000000" stroke-width = "1" fill = "#000000" />	<path d = "M284 221 L284 217 L280 217 L280 221 L284 221 Z" stroke = "#000000" stroke-width = "1" fill = "#000000" />	<path d = "M284 212 L284 208 L280 208 L280 212 L284 212 Z" stroke = "#000000" stroke-width = "1" fill = "#000000" />	<path d = "M284 203 L284 199 L280 199 L280 203 L284 203 Z" stroke = "#000000" stroke-width = "1" fill = "#000000" />	<path d = "M284 194 L284 190 L280 190 L280 194 L284 194 Z" stroke = "#000000" stroke-width = "1" fill = "#000000" />	<path d = "M302 239 L302 235 L298 235 L298 239 L302 239 Z" stroke = "#000000" stroke-width = "1" fill = "#000000" />	<path d = "M302 230 L302 226 L298 226 L298 230 L302 230 Z" stroke = "#000000" stroke-width = "1" fill = "#000000" />	<path d = "M302 221 L302 217 L298 217 L298 221 L302 221 Z" stroke = "#000000" stroke-width = "1" fill = "#000000" />	<path d = "M302 212 L302 208 L298 208 L298 212 L302 212 Z" stroke = "#000000" stroke-width = "1" fill = "#000000" />	<path d = "M302 203 L302 199 L298 199 L298 203 L302 203 Z" stroke = "#000000" stroke-width = "1" fill = "#000000" />	<path d = "M302 194 L302 190 L298 190 L298 194 L302 194 Z" stroke = "#000000" stroke-width = "1" fill = "#000000" />	<path d = "M311 248 L311 244 L307 244 L307 248 L311 248 Z" stroke = "#000000" stroke-width = "1" fill = "#000000" />	<path d = "M320 239 L320 235 L316 235 L316 239 L320 239 Z" stroke = "#000000" stroke-width = "1" fill = "#000000" />	<path d = "M320 230 L320 226 L316 226 L316 230 L320 230 Z" stroke = "#000000" stroke-width = "1" fill = "#000000" />	<path d = "M320 221 L320 217 L316 217 L316 221 L320 221 Z" stroke = "#000000" stroke-width = "1" fill = "#000000" />	<path d = "M329 248 L329 244 L325 244 L325 248 L329 248 Z" stroke = "#000000" stroke-width = "1" fill = "#000000" />	<path d = "M338 239 L338 235 L334 235 L334 239 L338 239 Z" stroke = "#000000" stroke-width = "1" fill = "#000000" />	<path d = "M338 230 L338 226 L334 226 L334 230 L338 230 Z" stroke = "#000000" stroke-width = "1" fill = "#000000" />	<path d = "M338 221 L338 217 L334 217 L334 221 L338 221 Z" stroke = "#000000" stroke-width = "1" fill = "#000000" />	<path d = "M338 212 L338 208 L334 208 L334 212 L338 212 Z" stroke = "#000000" stroke-width = "1" fill = "#000000" />	<path d = "M338 203 L338 199 L334 199 L334 203 L338 203 Z" stroke = "#000000" stroke-width = "1" fill = "#000000" />	<path d = "M338 194 L338 190 L334 190 L334 194 L338 194 Z" stroke = "#000000" stroke-width = "1" fill = "#000000" />	<path d = "M374 248 L374 244 L370 244 L370 248 L374 248 Z" stroke = "#000000" stroke-width = "1" fill = "#000000" />	<path d = "M374 239 L374 235 L370 235 L370 239 L374 239 Z" stroke = "#000000" stroke-width = "1" fill = "#000000" />	<path d = "M383 239 L383 235 L379 235 L379 239 L383 239 Z" stroke = "#000000" stroke-width = "1" fill = "#000000" />	<path d = "M383 248 L383 244 L379 244 L379 248 L383 248 Z" stroke = "#000000" stroke-width = "1" fill = "#000000" />	<path d = "M194 329 L194 325 L190 325 L190 329 L194 329 Z" stroke = "#000000" stroke-width = "1" fill = "#000000" />	<path d = "M194 320 L194 316 L190 316 L190 320 L194 320 Z" stroke = "#000000" stroke-width = "1" fill = "#000000" />	<path d = "M194 311 L194 307 L190 307 L190 311 L194 311 Z" stroke = "#000000" stroke-width = "1" fill = "#000000" />	<path d = "M194 302 L194 298 L190 298 L190 302 L194 302 Z" stroke = "#000000" stroke-width = "1" fill = "#000000" />	<path d = "M194 293 L194 289 L190 289 L190 293 L194 293 Z" stroke = "#000000" stroke-width = "1" fill = "#000000" />	<path d = "M194 284 L194 280 L190 280 L190 284 L194 284 Z" stroke = "#000000" stroke-width = "1" fill = "#000000" />	<path d = "M194 275 L194 271 L190 271 L190 275 L194 275 Z" stroke = "#000000" stroke-width = "1" fill = "#000000" />	<path d = "M203 275 L203 271 L199 271 L199 275 L203 275 Z" stroke = "#000000" stroke-width = "1" fill = "#000000" />	<path d = "M212 275 L212 271 L208 271 L208 275 L212 275 Z" stroke = "#000000" stroke-width = "1" fill = "#000000" />	<path d = "M221 275 L221 271 L217 271 L217 275 L221 275 Z" stroke = "#000000" stroke-width = "1" fill = "#000000" />	<path d = "M230 275 L230 271 L226 271 L226 275 L230 275 Z" stroke = "#000000" stroke-width = "1" fill = "#000000" />	<path d = "M212 302 L212 298 L208 298 L208 302 L212 302 Z" stroke = "#000000" stroke-width = "1" fill = "#000000" />	<path d = "M203 302 L203 298 L199 298 L199 302 L203 302 Z" stroke = "#000000" stroke-width = "1" fill = "#000000" />	<path d = "M248 329 L248 325 L244 325 L244 329 L248 329 Z" stroke = "#000000" stroke-width = "1" fill = "#000000" />	<path d = "M248 320 L248 316 L244 316 L244 320 L248 320 Z" stroke = "#000000" stroke-width = "1" fill = "#000000" />	<path d = "M248 311 L248 307 L244 307 L244 311 L248 311 Z" stroke = "#000000" stroke-width = "1" fill = "#000000" />	<path d = "M248 302 L248 298 L244 298 L244 302 L248 302 Z" stroke = "#000000" stroke-width = "1" fill = "#000000" />	<path d = "M248 293 L248 289 L244 289 L244 293 L248 293 Z" stroke = "#000000" stroke-width = "1" fill = "#000000" />	<path d = "M248 284 L248 280 L244 280 L244 284 L248 284 Z" stroke = "#000000" stroke-width = "1" fill = "#000000" />	<path d = "M248 275 L248 271 L244 271 L244 275 L248 275 Z" stroke = "#000000" stroke-width = "1" fill = "#000000" />	<path d = "M257 275 L257 271 L253 271 L253 275 L257 275 Z" stroke = "#000000" stroke-width = "1" fill = "#000000" />	<path d = "M266 275 L266 271 L262 271 L262 275 L266 275 Z" stroke = "#000000" stroke-width = "1" fill = "#000000" />	<path d = "M275 275 L275 271 L271 271 L271 275 L275 275 Z" stroke = "#000000" stroke-width = "1" fill = "#000000" />	<path d = "M284 275 L284 271 L280 271 L280 275 L284 275 Z" stroke = "#000000" stroke-width = "1" fill = "#000000" />	<path d = "M266 302 L266 298 L262 298 L262 302 L266 302 Z" stroke = "#000000" stroke-width = "1" fill = "#000000" />	<path d = "M257 302 L257 298 L253 298 L253 302 L257 302 Z" stroke = "#000000" stroke-width = "1" fill = "#000000" />	<path d = "M302 329 L302 325 L298 325 L298 329 L302 329 Z" stroke = "#000000" stroke-width = "1" fill = "#000000" />	<path d = "M302 320 L302 316 L298 316 L298 320 L302 320 Z" stroke = "#000000" stroke-width = "1" fill = "#000000" />	<path d = "M302 311 L302 307 L298 307 L298 311 L302 311 Z" stroke = "#000000" stroke-width = "1" fill = "#000000" />	<path d = "M302 302 L302 298 L298 298 L298 302 L302 302 Z" stroke = "#000000" stroke-width = "1" fill = "#000000" />	<path d = "M302 293 L302 289 L298 289 L298 293 L302 293 Z" stroke = "#000000" stroke-width = "1" fill = "#000000" />	<path d = "M302 284 L302 280 L298 280 L298 284 L302 284 Z" stroke = "#000000" stroke-width = "1" fill = "#000000" />	<path d = "M302 275 L302 271 L298 271 L298 275 L302 275 Z" stroke = "#000000" stroke-width = "1" fill = "#000000" />	<path d = "M311 275 L311 271 L307 271 L307 275 L311 275 Z" stroke = "#000000" stroke-width = "1" fill = "#000000" />	<path d = "M320 275 L320 271 L316 271 L316 275 L320 275 Z" stroke = "#000000" stroke-width = "1" fill = "#000000" />	<path d = "M329 275 L329 271 L325 271 L325 275 L329 275 Z" stroke = "#000000" stroke-width = "1" fill = "#000000" />	<path d = "M338 284 L338 280 L334 280 L334 284 L338 284 Z" stroke = "#000000" stroke-width = "1" fill = "#000000" />	<path d = "M338 293 L338 289 L334 289 L334 293 L338 293 Z" stroke = "#000000" stroke-width = "1" fill = "#000000" />	<path d = "M329 302 L329 298 L325 298 L325 302 L329 302 Z" stroke = "#000000" stroke-width = "1" fill = "#000000" />	<path d = "M320 302 L320 298 L316 298 L316 302 L320 302 Z" stroke = "#000000" stroke-width = "1" fill = "#000000" />	<path d = "M311 302 L311 298 L307 298 L307 302 L311 302 Z" stroke = "#000000" stroke-width = "1" fill = "#000000" />	<path d = "M338 311 L338 307 L334 307 L334 311 L338 311 Z" stroke = "#000000" stroke-width = "1" fill = "#000000" />	<path d = "M338 320 L338 316 L334 316 L334 320 L338 320 Z" stroke = "#000000" stroke-width = "1" fill = "#000000" />	<path d = "M329 329 L329 325 L325 325 L325 329 L329 329 Z" stroke = "#000000" stroke-width = "1" fill = "#000000" />	<path d = "M320 329 L320 325 L316 325 L316 329 L320 329 Z" stroke = "#000000" stroke-width = "1" fill = "#000000" />	<path d = "M311 329 L311 325 L307 325 L307 329 L311 329 Z" stroke = "#000000" stroke-width = "1" fill = "#000000" />	<path d = "M356 320 L356 316 L352 316 L352 320 L356 320 Z" stroke = "#000000" stroke-width = "1" fill = "#000000" />	<path d = "M356 311 L356 307 L352 307 L352 311 L356 311 Z" stroke = "#000000" stroke-width = "1" fill = "#000000" />	<path d = "M356 302 L356 298 L352 298 L352 302 L356 302 Z" stroke = "#000000" stroke-width = "1" fill = "#000000" />	<path d = "M356 293 L356 289 L352 289 L352 293 L356 293 Z" stroke = "#000000" stroke-width = "1" fill = "#000000" />	<path d = "M356 284 L356 280 L352 280 L352 284 L356 284 Z" stroke = "#000000" stroke-width = "1" fill = "#000000" />	<path d = "M356 275 L356 271 L352 271 L352 275 L356 275 Z" stroke = "#000000" stroke-width = "1" fill = "#000000" />	<path d = "M365 329 L365 325 L361 325 L361 329 L365 329 Z" stroke = "#000000" stroke-width = "1" fill = "#000000" />	<path d = "M374 329 L374 325 L370 325 L370 329 L374 329 Z" stroke = "#000000" stroke-width = "1" fill = "#000000" />	<path d = "M383 329 L383 325 L379 325 L379 329 L383 329 Z" stroke = "#000000" stroke-width = "1" fill = "#000000" />	<path d = "M392 320 L392 316 L388 316 L388 320 L392 320 Z" stroke = "#000000" stroke-width = "1" fill = "#000000" />	<path d = "M392 311 L392 307 L388 307 L388 311 L392 311 Z" stroke = "#000000" stroke-width = "1" fill = "#000000" />	<path d = "M392 302 L392 298 L388 298 L388 302 L392 302 Z" stroke = "#000000" stroke-width = "1" fill = "#000000" />	<path d = "M392 293 L392 289 L388 289 L388 293 L392 293 Z" stroke = "#000000" stroke-width = "1" fill = "#000000" />	<path d = "M392 284 L392 280 L388 280 L388 284 L392 284 Z" stroke = "#000000" stroke-width = "1" fill = "#000000" />	<path d = "M392 275 L392 271 L388 271 L388 275 L392 275 Z" stroke = "#000000" stroke-width = "1" fill = "#000000" />	<path d = "M410 320 L410 316 L406 316 L406 320 L410 320 Z" stroke = "#000000" stroke-width = "1" fill = "#000000" />	<path d = "M419 329 L419 325 L415 325 L415 329 L419 329 Z" stroke = "#000000" stroke-width = "1" fill = "#000000" />	<path d = "M428 329 L428 325 L424 325 L424 329 L428 329 Z" stroke = "#000000" stroke-width = "1" fill = "#000000" />	<path d = "M437 329 L437 325 L433 325 L433 329 L437 329 Z" stroke = "#000000" stroke-width = "1" fill = "#000000" />	<path d = "M446 320 L446 316 L442 316 L442 320 L446 320 Z" stroke = "#000000" stroke-width = "1" fill = "#000000" />	<path d = "M446 311 L446 307 L442 307 L442 311 L446 311 Z" stroke = "#000000" stroke-width = "1" fill = "#000000" />	<path d = "M437 302 L437 298 L433 298 L433 302 L437 302 Z" stroke = "#000000" stroke-width = "1" fill = "#000000" />	<path d = "M428 302 L428 298 L424 298 L424 302 L428 302 Z" stroke = "#000000" stroke-width = "1" fill = "#000000" />	<path d = "M419 302 L419 298 L415 298 L415 302 L419 302 Z" stroke = "#000000" stroke-width = "1" fill = "#000000" />	<path d = "M410 293 L410 289 L406 289 L406 293 L410 293 Z" stroke = "#000000" stroke-width = "1" fill = "#000000" />	<path d = "M410 284 L410 280 L406 280 L406 284 L410 284 Z" stroke = "#000000" stroke-width = "1" fill = "#000000" />	<path d = "M419 275 L419 271 L415 271 L415 275 L419 275 Z" stroke = "#000000" stroke-width = "1" fill = "#000000" />	<path d = "M428 275 L428 271 L424 271 L424 275 L428 275 Z" stroke = "#000000" stroke-width = "1" fill = "#000000" />	<path d = "M437 275 L437 271 L433 271 L433 275 L437 275 Z" stroke = "#000000" stroke-width = "1" fill = "#000000" />	<path d = "M446 284 L446 280 L442 280 L442 284 L446 284 Z" stroke = "#000000" stroke-width = "1" fill = "#000000" />	<path d = "M266 410 L266 406 L262 406 L262 410 L266 410 Z" stroke = "#000000" stroke-width = "1" fill = "#000000" />	<path d = "M266 401 L266 397 L262 397 L262 401 L266 401 Z" stroke = "#000000" stroke-width = "1" fill = "#000000" />	<path d = "M275 401 L275 397 L271 397 L271 401 L275 401 Z" stroke = "#000000" stroke-width = "1" fill = "#000000" />	<path d = "M275 410 L275 406 L271 406 L271 410 L275 410 Z" stroke = "#000000" stroke-width = "1" fill = "#000000" />	<path d = "M302 401 L302 397 L298 397 L298 401 L302 401 Z" stroke = "#000000" stroke-width = "1" fill = "#000000" />	<path d = "M302 392 L302 388 L298 388 L298 392 L302 392 Z" stroke = "#000000" stroke-width = "1" fill = "#000000" />	<path d = "M302 383 L302 379 L298 379 L298 383 L302 383 Z" stroke = "#000000" stroke-width = "1" fill = "#000000" />	<path d = "M302 374 L302 370 L298 370 L298 374 L302 374 Z" stroke = "#000000" stroke-width = "1" fill = "#000000" />	<path d = "M302 365 L302 361 L298 361 L298 365 L302 365 Z" stroke = "#000000" stroke-width = "1" fill = "#000000" />	<path d = "M311 356 L311 352 L307 352 L307 356 L311 356 Z" stroke = "#000000" stroke-width = "1" fill = "#000000" />	<path d = "M320 356 L320 352 L316 352 L316 356 L320 356 Z" stroke = "#000000" stroke-width = "1" fill = "#000000" />	<path d = "M329 356 L329 352 L325 352 L325 356 L329 356 Z" stroke = "#000000" stroke-width = "1" fill = "#000000" />	<path d = "M338 365 L338 361 L334 361 L334 365 L338 365 Z" stroke = "#000000" stroke-width = "1" fill = "#000000" />	<path d = "M338 374 L338 370 L334 370 L334 374 L338 374 Z" stroke = "#000000" stroke-width = "1" fill = "#000000" />	<path d = "M338 383 L338 379 L334 379 L334 383 L338 383 Z" stroke = "#000000" stroke-width = "1" fill = "#000000" />	<path d = "M338 392 L338 388 L334 388 L334 392 L338 392 Z" stroke = "#000000" stroke-width = "1" fill = "#000000" />	<path d = "M338 401 L338 397 L334 397 L334 401 L338 401 Z" stroke = "#000000" stroke-width = "1" fill = "#000000" />	<path d = "M329 410 L329 406 L325 406 L325 410 L329 410 Z" stroke = "#000000" stroke-width = "1" fill = "#000000" />	<path d = "M320 410 L320 406 L316 406 L316 410 L320 410 Z" stroke = "#000000" stroke-width = "1" fill = "#000000" />	<path d = "M311 410 L311 406 L307 406 L307 410 L311 410 Z" stroke = "#000000" stroke-width = "1" fill = "#000000" />	<path d = "M356 410 L356 406 L352 406 L352 410 L356 410 Z" stroke = "#000000" stroke-width = "1" fill = "#000000" />	<path d = "M356 401 L356 397 L352 397 L352 401 L356 401 Z" stroke = "#000000" stroke-width = "1" fill = "#000000" />	<path d = "M356 392 L356 388 L352 388 L352 392 L356 392 Z" stroke = "#000000" stroke-width = "1" fill = "#000000" />	<path d = "M356 383 L356 379 L352 379 L352 383 L356 383 Z" stroke = "#000000" stroke-width = "1" fill = "#000000" />	<path d = "M356 374 L356 370 L352 370 L352 374 L356 374 Z" stroke = "#000000" stroke-width = "1" fill = "#000000" />	<path d = "M356 365 L356 361 L352 361 L352 365 L356 365 Z" stroke = "#000000" stroke-width = "1" fill = "#000000" />	<path d = "M356 356 L356 352 L352 352 L352 356 L356 356 Z" stroke = "#000000" stroke-width = "1" fill = "#000000" />	<path d = "M365 356 L365 352 L361 352 L361 356 L365 356 Z" stroke = "#000000" stroke-width = "1" fill = "#000000" />	<path d = "M374 356 L374 352 L370 352 L370 356 L374 356 Z" stroke = "#000000" stroke-width = "1" fill = "#000000" />	<path d = "M383 356 L383 352 L379 352 L379 356 L383 356 Z" stroke = "#000000" stroke-width = "1" fill = "#000000" />	<path d = "M392 365 L392 361 L388 361 L388 365 L392 365 Z" stroke = "#000000" stroke-width = "1" fill = "#000000" />	<path d = "M392 374 L392 370 L388 370 L388 374 L392 374 Z" stroke = "#000000" stroke-width = "1" fill = "#000000" />	<path d = "M383 383 L383 379 L379 379 L379 383 L383 383 Z" stroke = "#000000" stroke-width = "1" fill = "#000000" />	<path d = "M374 383 L374 379 L370 379 L370 383 L374 383 Z" stroke = "#000000" stroke-width = "1" fill = "#000000" />	<path d = "M365 383 L365 379 L361 379 L361 383 L365 383 Z" stroke = "#000000" stroke-width = "1" fill = "#000000" />	<path d = "M374 392 L374 388 L370 388 L370 392 L374 392 Z" stroke = "#000000" stroke-width = "1" fill = "#000000" />	<path d = "M383 401 L383 397 L379 397 L379 401 L383 401 Z" stroke = "#000000" stroke-width = "1" fill = "#000000" />	<path d = "M392 410 L392 406 L388 406 L388 410 L392 410 Z" stroke = "#000000" stroke-width = "1" fill = "#000000" />	<path d = "M410 401 L410 397 L406 397 L406 401 L410 401 Z" stroke = "#000000" stroke-width = "1" fill = "#000000" />	<path d = "M410 392 L410 388 L406 388 L406 392 L410 392 Z" stroke = "#000000" stroke-width = "1" fill = "#000000" />	<path d = "M410 383 L410 379 L406 379 L406 383 L410 383 Z" stroke = "#000000" stroke-width = "1" fill = "#000000" />	<path d = "M410 374 L410 370 L406 370 L406 374 L410 374 Z" stroke = "#000000" stroke-width = "1" fill = "#000000" />	<path d = "M410 365 L410 361 L406 361 L406 365 L410 365 Z" stroke = "#000000" stroke-width = "1" fill = "#000000" />	<path d = "M419 356 L419 352 L415 352 L415 356 L419 356 Z" stroke = "#000000" stroke-width = "1" fill = "#000000" />	<path d = "M428 356 L428 352 L424 352 L424 356 L428 356 Z" stroke = "#000000" stroke-width = "1" fill = "#000000" />	<path d = "M437 356 L437 352 L433 352 L433 356 L437 356 Z" stroke = "#000000" stroke-width = "1" fill = "#000000" />	<path d = "M446 365 L446 361 L442 361 L442 365 L446 365 Z" stroke = "#000000" stroke-width = "1" fill = "#000000" />	<path d = "M437 383 L437 379 L433 379 L433 383 L437 383 Z" stroke = "#000000" stroke-width = "1" fill = "#000000" />	<path d = "M428 383 L428 379 L424 379 L424 383 L428 383 Z" stroke = "#000000" stroke-width = "1" fill = "#000000" />	<path d = "M446 383 L446 379 L442 379 L442 383 L446 383 Z" stroke = "#000000" stroke-width = "1" fill = "#000000" />	<path d = "M446 392 L446 388 L442 388 L442 392 L446 392 Z" stroke = "#000000" stroke-width = "1" fill = "#000000" />	<path d = "M446 401 L446 397 L442 397 L442 401 L446 401 Z" stroke = "#000000" stroke-width = "1" fill = "#000000" />	<path d = "M446 410 L446 406 L442 406 L442 410 L446 410 Z" stroke = "#000000" stroke-width = "1" fill = "#000000" />	<path d = "M437 410 L437 406 L433 406 L433 410 L437 410 Z" stroke = "#000000" stroke-width = "1" fill = "#000000" />	<path d = "M428 410 L428 406 L424 406 L424 410 L428 410 Z" stroke = "#000000" stroke-width = "1" fill = "#000000" />	<path d = "M419 410 L419 406 L415 406 L415 410 L419 410 Z" stroke = "#000000" stroke-width = "1" fill = "#000000" /></svg>